<svg width="19" height="14" viewBox="0 0 19 14" fill="none" xmlns="http://www.w3.org/2000/svg">
<path id="Vector" fill-rule="evenodd" clip-rule="evenodd" d="M17.1 10.5H8.284L7.6475 8.75H16.15C16.568 8.75 16.91 8.49625 17.043 8.14625H17.0525L18.9525 2.89625H18.943C18.9715 2.80875 19 2.72125 19 2.625C19 2.14375 18.5725 1.75 18.05 1.75H5.1205L4.7025 0.595H4.693C4.56 0.25375 4.218 0 3.8 0H0.95C0.4275 0 0 0.39375 0 0.875C0 1.35625 0.4275 1.75 0.95 1.75H3.116L6.2795 10.5H4.75C3.705 10.5 2.85 11.2875 2.85 12.25C2.85 13.2125 3.705 14 4.75 14C5.795 14 6.65 13.2125 6.65 12.25H15.2C15.2 13.2125 16.055 14 17.1 14C18.145 14 19 13.2125 19 12.25C19 11.2875 18.145 10.5 17.1 10.5ZM5.7475 3.5H16.7295L15.466 7H7.0205L5.7475 3.5Z" fill="white"/>
</svg>
